<?xml version="1.0" encoding="UTF-8" standalone="no"?>
<svg
   xmlns:dc="http://purl.org/dc/elements/1.1/"
   xmlns:cc="http://creativecommons.org/ns#"
   xmlns:rdf="http://www.w3.org/1999/02/22-rdf-syntax-ns#"
   xmlns:svg="http://www.w3.org/2000/svg"
   xmlns="http://www.w3.org/2000/svg"
   xmlns:sodipodi="http://sodipodi.sourceforge.net/DTD/sodipodi-0.dtd"
   xmlns:inkscape="http://www.inkscape.org/namespaces/inkscape"
   sodipodi:docname="wp_mgmt_overview.svg"
   inkscape:version="1.0beta1 (fe3e306, 2019-09-17)"
   id="svg8"
   version="1.1"
   viewBox="0 0 200 200"
   height="200mm"
   width="200mm">
  <defs
     id="defs2">
    <marker
       inkscape:isstock="true"
       style="overflow:visible"
       id="marker3747"
       refX="0"
       refY="0"
       orient="auto"
       inkscape:stockid="Arrow2Mend">
      <path
         inkscape:connector-curvature="0"
         transform="scale(-0.6)"
         d="M 8.7185878,4.0337352 -2.2072895,0.01601326 8.7185884,-4.0017078 c -1.7454984,2.3720609 -1.7354408,5.6174519 -6e-7,8.035443 z"
         style="fill:#b3b3b3;fill-opacity:1;fill-rule:evenodd;stroke:#b3b3b3;stroke-width:0.625;stroke-linejoin:round;stroke-opacity:1"
         id="path3745" />
    </marker>
    <marker
       inkscape:isstock="true"
       style="overflow:visible"
       id="marker3737"
       refX="0"
       refY="0"
       orient="auto"
       inkscape:stockid="Arrow2Mstart">
      <path
         inkscape:connector-curvature="0"
         transform="scale(0.6)"
         d="M 8.7185878,4.0337352 -2.2072895,0.01601326 8.7185884,-4.0017078 c -1.7454984,2.3720609 -1.7354408,5.6174519 -6e-7,8.035443 z"
         style="fill:#b3b3b3;fill-opacity:1;fill-rule:evenodd;stroke:#b3b3b3;stroke-width:0.625;stroke-linejoin:round;stroke-opacity:1"
         id="path3735" />
    </marker>
    <marker
       inkscape:collect="always"
       inkscape:stockid="Arrow2Mend"
       orient="auto"
       refY="0"
       refX="0"
       id="marker3253"
       style="overflow:visible"
       inkscape:isstock="true">
      <path
         inkscape:connector-curvature="0"
         id="path3251"
         style="fill:#666666;fill-opacity:1;fill-rule:evenodd;stroke:#666666;stroke-width:0.625;stroke-linejoin:round;stroke-opacity:1"
         d="M 8.7185878,4.0337352 -2.2072895,0.01601326 8.7185884,-4.0017078 c -1.7454984,2.3720609 -1.7354408,5.6174519 -6e-7,8.035443 z"
         transform="scale(-0.6)" />
    </marker>
    <marker
       inkscape:collect="always"
       inkscape:stockid="Arrow2Mstart"
       orient="auto"
       refY="0"
       refX="0"
       id="marker3243"
       style="overflow:visible"
       inkscape:isstock="true">
      <path
         inkscape:connector-curvature="0"
         id="path3241"
         style="fill:#666666;fill-opacity:1;fill-rule:evenodd;stroke:#666666;stroke-width:0.625;stroke-linejoin:round;stroke-opacity:1"
         d="M 8.7185878,4.0337352 -2.2072895,0.01601326 8.7185884,-4.0017078 c -1.7454984,2.3720609 -1.7354408,5.6174519 -6e-7,8.035443 z"
         transform="scale(0.6)" />
    </marker>
    <marker
       inkscape:collect="always"
       inkscape:isstock="true"
       style="overflow:visible"
       id="Arrow2Mend"
       refX="0"
       refY="0"
       orient="auto"
       inkscape:stockid="Arrow2Mend">
      <path
         inkscape:connector-curvature="0"
         transform="scale(-0.6)"
         d="M 8.7185878,4.0337352 -2.2072895,0.01601326 8.7185884,-4.0017078 c -1.7454984,2.3720609 -1.7354408,5.6174519 -6e-7,8.035443 z"
         style="fill:#666666;fill-opacity:1;fill-rule:evenodd;stroke:#666666;stroke-width:0.625;stroke-linejoin:round;stroke-opacity:1"
         id="path1171" />
    </marker>
    <marker
       inkscape:collect="always"
       inkscape:isstock="true"
       style="overflow:visible"
       id="Arrow2Mstart"
       refX="0"
       refY="0"
       orient="auto"
       inkscape:stockid="Arrow2Mstart">
      <path
         inkscape:connector-curvature="0"
         transform="scale(0.6)"
         d="M 8.7185878,4.0337352 -2.2072895,0.01601326 8.7185884,-4.0017078 c -1.7454984,2.3720609 -1.7354408,5.6174519 -6e-7,8.035443 z"
         style="fill:#666666;fill-opacity:1;fill-rule:evenodd;stroke:#666666;stroke-width:0.625;stroke-linejoin:round;stroke-opacity:1"
         id="path1168" />
    </marker>
    <marker
       inkscape:isstock="true"
       style="overflow:visible"
       id="Arrow2Lstart"
       refX="0"
       refY="0"
       orient="auto"
       inkscape:stockid="Arrow2Lstart">
      <path
         inkscape:connector-curvature="0"
         transform="matrix(1.1,0,0,1.1,1.1,0)"
         d="M 8.7185878,4.0337352 -2.2072895,0.01601326 8.7185884,-4.0017078 c -1.7454984,2.3720609 -1.7354408,5.6174519 -6e-7,8.035443 z"
         style="fill:#000000;fill-opacity:1;fill-rule:evenodd;stroke:#000000;stroke-width:0.625;stroke-linejoin:round;stroke-opacity:1"
         id="path1162" />
    </marker>
    <clipPath
       id="clipPath22"
       clipPathUnits="userSpaceOnUse">
      <path
         inkscape:connector-curvature="0"
         id="path20"
         d="M 687.207,101.289 C 698.379,49.0508 725.957,18.1719 752.988,0 L 1041.02,0.339844 C 1075.86,23.9883 1111.49,68.7891 1111.49,153.398 v 216.973 c 0,0 4.47,53.699 53.69,71.59 0,0 29.06,20.129 -2.25,31.309 0,0 -136.44,11.23 -136.44,-100.649 V 207.09 c 0,0 5.39,-61.008 -26.838,-86.11 v 204.29 c 0,0 2.228,64.859 35.778,89.468 0,0 22.37,40.25 -26.83,29.082 0,0 -93.948,-13.422 -98.42,-123.031 l -2.149,-209.891 h -22.582 l -2.129,209.891 c -4.472,109.609 -98.418,123.031 -98.418,123.031 -49.218,11.168 -26.836,-29.082 -26.836,-29.082 33.555,-24.609 35.782,-89.468 35.782,-89.468 V 118.641 c -32.246,22.808 -26.836,88.449 -26.836,88.449 v 165.531 c 0,111.879 -136.446,100.649 -136.446,100.649 -31.328,-11.18 -2.246,-31.309 -2.246,-31.309 49.219,-17.891 53.692,-71.59 53.692,-71.59 V 218.582 Z" />
    </clipPath>
    <linearGradient
       x1="100"
       y1="0"
       x2="100"
       y2="200"
       id="linearGradient-1"
       gradientUnits="userSpaceOnUse">
      <stop
         stop-color="#0079BF"
         offset="0%"
         id="stop1056" />
      <stop
         stop-color="#0079BF"
         offset="100%"
         id="stop1058" />
    </linearGradient>
    <style
       id="style4161">.cls-1{fill:#8c929d;}.cls-2{fill:#fc6d26;}.cls-3{fill:#e24329;}.cls-4{fill:#fca326;}</style>
  </defs>
  <sodipodi:namedview
     inkscape:window-maximized="0"
     inkscape:window-y="23"
     inkscape:window-x="0"
     inkscape:window-height="855"
     inkscape:window-width="1440"
     showgrid="false"
     inkscape:document-rotation="0"
     inkscape:current-layer="g4389"
     inkscape:document-units="mm"
     inkscape:cy="328.05413"
     inkscape:cx="394.17355"
     inkscape:zoom="0.69106464"
     inkscape:pageshadow="2"
     inkscape:pageopacity="0.0"
     borderopacity="1.0"
     bordercolor="#666666"
     pagecolor="#ffffff"
     id="base" />
  <metadata
     id="metadata5">
    <rdf:RDF>
      <cc:Work
         rdf:about="">
        <dc:format>image/svg+xml</dc:format>
        <dc:type
           rdf:resource="http://purl.org/dc/dcmitype/StillImage" />
        <dc:title></dc:title>
      </cc:Work>
    </rdf:RDF>
  </metadata>
  <g
     id="layer1"
     inkscape:groupmode="layer"
     inkscape:label="Layer 1">
    <g
       transform="matrix(2.6667053,0,0,2.6667053,-137.14976,-103.77258)"
       id="g4389">
      <path
         d="m 86.150459,63.542099 h 4.244529 v 3.481824 h -4.244529 z"
         style="opacity:1;fill:#cccccc;stroke:none;stroke-width:0.200119;stroke-linecap:round;stroke-miterlimit:4;stroke-dasharray:0.200119, 0.600358;stroke-dashoffset:0;stop-opacity:1"
         id="rect901" />
      <path
         d="m 98.392464,63.542099 h 18.269896 v 3.481824 H 98.392464 Z"
         style="opacity:1;fill:#cccccc;stroke:none;stroke-width:0.291082;stroke-linecap:round;stroke-miterlimit:4;stroke-dasharray:0.291082, 0.873246;stroke-dashoffset:0;stop-opacity:1"
         id="rect905" />
      <path
         d="m 86.150459,60.060276 h 7.419532 V 63.5421 h -7.419532 z"
         style="opacity:1;fill:#cccccc;stroke:none;stroke-width:0.264583;stroke-linecap:round;stroke-miterlimit:4;stroke-dasharray:0.264583, 0.79375;stroke-dashoffset:0;stop-opacity:1"
         id="rect918" />
      <path
         d="m 104.38929,60.060276 h 12.27307 V 63.5421 h -12.27307 z"
         style="opacity:1;fill:#cccccc;stroke:none;stroke-width:0.264583;stroke-linecap:round;stroke-miterlimit:4;stroke-dasharray:0.264583, 0.79375;stroke-dashoffset:0;stop-opacity:1"
         id="rect922" />
      <path
         d="m 77.737343,60.060276 h 3.724803 V 63.5421 h -3.724803 z"
         style="opacity:1;fill:#cccccc;stroke:none;stroke-width:0.264583;stroke-linecap:round;stroke-miterlimit:4;stroke-dasharray:0.264583, 0.79375;stroke-dashoffset:0;stop-opacity:1"
         id="rect926" />
      <path
         d="M 56.45319,75.817947 H 74.833305 V 105.35741 H 56.45319 Z"
         style="fill:none;stroke:#666666;stroke-width:0.447215;stroke-linecap:round"
         id="rect833" />
      <path
         d="M 79.534637,75.817947 H 97.914753 V 105.35741 H 79.534637 Z"
         style="fill:none;stroke:#666666;stroke-width:0.447215;stroke-linecap:round"
         id="rect835" />
      <path
         d="M 102.61609,75.817947 H 120.9962 V 105.35741 H 102.61609 Z"
         style="fill:none;stroke:#b3b3b3;stroke-width:0.447;stroke-linecap:round;stroke-miterlimit:4;stroke-dasharray:0.447, 0.894;stroke-dashoffset:0"
         id="rect837" />
      <path
         d="m 56.45319,47.46981 h 64.95336 V 71.094273 H 56.45319 Z"
         style="fill:none;stroke:#666666;stroke-width:0.751836;stroke-linecap:round"
         id="rect839" />
      <g
         style="font-style:normal;font-weight:normal;font-size:10.5833px;line-height:1.25;font-family:sans-serif;fill:#000000;fill-opacity:1;stroke:none;stroke-width:0.264583"
         id="text843"
         aria-label="WP">
        <path
           id="path5840"
           style="font-style:normal;font-variant:normal;font-weight:normal;font-stretch:normal;font-size:10.5833px;font-family:'Bebas Kai';-inkscape-font-specification:'Bebas Kai Normal';font-variant-ligatures:normal;font-variant-caps:normal;font-variant-numeric:normal;font-variant-east-asian:normal;stroke-width:0.264583"
           d="m 66.433026,79.438042 h -1.12183 l -0.645582,4.910651 h -0.02117 L 64.00945,79.438042 h -0.99483 l -0.634998,4.910651 h -0.02117 l -0.645581,-4.910651 h -1.15358 l 1.142997,7.40831 h 1.142996 l 0.645581,-4.413236 h 0.02117 l 0.634998,4.413236 h 1.142996 z" />
        <path
           id="path5842"
           style="font-style:normal;font-variant:normal;font-weight:normal;font-stretch:normal;font-size:10.5833px;font-family:'Bebas Kai';-inkscape-font-specification:'Bebas Kai Normal';font-variant-ligatures:normal;font-variant-caps:normal;font-variant-numeric:normal;font-variant-east-asian:normal;stroke-width:0.264583"
           d="m 68.864538,79.438042 h -1.619244 v 7.40831 h 1.121829 v -3.069157 h 0.497415 c 1.206497,0 1.862661,-0.656165 1.862661,-1.873244 v -0.592665 c 0,-1.21708 -0.656164,-1.873244 -1.862661,-1.873244 z m -0.04233,1.037163 c 0.539749,0 0.783164,0.285749 0.783164,0.910164 v 0.444499 c 0,0.624414 -0.243415,0.910163 -0.783164,0.910163 h -0.455082 v -2.264826 z" />
      </g>
      <g
         style="font-style:normal;font-weight:normal;font-size:10.5833px;line-height:1.25;font-family:sans-serif;fill:#000000;fill-opacity:1;stroke:none;stroke-width:0.264583"
         id="text895"
         aria-label="WP">
        <path
           id="path5845"
           style="font-style:normal;font-variant:normal;font-weight:normal;font-stretch:normal;font-size:10.5833px;font-family:'Bebas Kai';-inkscape-font-specification:'Bebas Kai Normal';font-variant-ligatures:normal;font-variant-caps:normal;font-variant-numeric:normal;font-variant-east-asian:normal;stroke-width:0.264583"
           d="m 89.514473,79.438042 h -1.12183 l -0.645581,4.910651 h -0.02117 l -0.634998,-4.910651 h -0.99483 l -0.634998,4.910651 h -0.02117 l -0.645582,-4.910651 h -1.153579 l 1.142996,7.40831 h 1.142997 l 0.645581,-4.413236 h 0.02117 l 0.634998,4.413236 h 1.142997 z" />
        <path
           id="path5847"
           style="font-style:normal;font-variant:normal;font-weight:normal;font-stretch:normal;font-size:10.5833px;font-family:'Bebas Kai';-inkscape-font-specification:'Bebas Kai Normal';font-variant-ligatures:normal;font-variant-caps:normal;font-variant-numeric:normal;font-variant-east-asian:normal;stroke-width:0.264583"
           d="m 91.945986,79.438042 h -1.619245 v 7.40831 h 1.12183 v -3.069157 h 0.497415 c 1.206496,0 1.862661,-0.656165 1.862661,-1.873244 v -0.592665 c 0,-1.21708 -0.656165,-1.873244 -1.862661,-1.873244 z m -0.04233,1.037163 c 0.539748,0 0.783164,0.285749 0.783164,0.910164 v 0.444499 c 0,0.624414 -0.243416,0.910163 -0.783164,0.910163 h -0.455082 v -2.264826 z" />
      </g>
      <path
         d="m 61.197384,63.542099 h 12.476538 v 3.481824 H 61.197384 Z"
         style="opacity:1;fill:#ff5555;stroke:none;stroke-width:0.264583;stroke-linecap:round;stroke-miterlimit:4;stroke-dasharray:0.264583, 0.79375;stroke-dashoffset:0;stop-opacity:1"
         id="rect897" />
      <path
         d="m 73.67392,63.542099 h 12.476537 v 3.481824 H 73.67392 Z"
         style="opacity:1;fill:#aaffaa;stroke:#71c837;stroke-width:0.264583;stroke-linecap:round;stroke-miterlimit:4;stroke-dasharray:0.264583, 0.529167;stroke-dashoffset:0;stop-opacity:1"
         id="rect899" />
      <path
         d="m 90.394989,63.542099 h 7.997475 v 3.481824 h -7.997475 z"
         style="opacity:1;fill:#aaffaa;stroke:#71c837;stroke-width:0.264583;stroke-linecap:round;stroke-miterlimit:4;stroke-dasharray:0.264583, 0.529167;stroke-dashoffset:0;stop-opacity:1"
         id="rect903" />
      <path
         d="M 61.197384,60.060276 H 77.737345 V 63.5421 H 61.197384 Z"
         style="opacity:1;fill:#ff5555;stroke:none;stroke-width:0.264583;stroke-linecap:round;stroke-miterlimit:4;stroke-dasharray:0.264583, 0.79375;stroke-dashoffset:0;stop-opacity:1"
         id="rect914" />
      <path
         d="m 81.462151,60.060276 h 4.688303 V 63.5421 h -4.688303 z"
         style="opacity:1;fill:#aaffaa;stroke:#71c837;stroke-width:0.264583;stroke-linecap:round;stroke-miterlimit:4;stroke-dasharray:0.264583, 0.529167;stroke-dashoffset:0;stop-opacity:1"
         id="rect916" />
      <path
         d="M 93.569992,60.060276 H 104.38929 V 63.5421 H 93.569992 Z"
         style="opacity:1;fill:#aaffaa;stroke:#71c837;stroke-width:0.264583;stroke-linecap:round;stroke-miterlimit:4;stroke-dasharray:0.264583, 0.529167;stroke-dashoffset:0;stop-opacity:1"
         id="rect920" />
      <path
         d="m 69.002925,51.555004 h -0.6731 v 1.87325 h -0.8001 v -1.87325 h -0.6731 v 4.445 h 0.6731 v -1.93675 h 0.8001 v 1.93675 h 0.6731 z"
         style="font-style:normal;font-variant:normal;font-weight:normal;font-stretch:normal;font-size:6.35px;line-height:1.25;font-family:'Bebas Kai';-inkscape-font-specification:'Bebas Kai';opacity:1;fill:#000000;fill-opacity:1;stroke:none;stroke-width:0.264583;stop-opacity:1"
         id="path5856"
         inkscape:connector-curvature="0" />
      <path
         d="m 70.394666,51.555004 h -0.6731 v 4.445 h 0.6731 z"
         style="font-style:normal;font-variant:normal;font-weight:normal;font-stretch:normal;font-size:6.35px;line-height:1.25;font-family:'Bebas Kai';-inkscape-font-specification:'Bebas Kai';opacity:1;fill:#000000;fill-opacity:1;stroke:none;stroke-width:0.264583;stop-opacity:1"
         id="path5858"
         inkscape:connector-curvature="0" />
      <path
         d="m 72.100931,51.491504 c -0.66675,0 -1.04775,0.3937 -1.04775,1.0668 v 2.4384 c 0,0.6731 0.381,1.0668 1.04775,1.0668 0.6731,0 1.06045,-0.3937 1.06045,-1.0668 v -1.45415 h -1.0414 v 0.6223 h 0.381 v 0.762 c 0,0.3556 -0.127,0.51435 -0.38735,0.51435 -0.26035,0 -0.38735,-0.15875 -0.38735,-0.45085 v -2.4257 c 0,-0.2921 0.13335,-0.45085 0.3937,-0.45085 0.26035,0 0.3937,0.15875 0.3937,0.51435 v 0.2667 l 0.6477,-0.03175 v -0.3048 c 0,-0.6731 -0.38735,-1.0668 -1.06045,-1.0668 z"
         style="font-style:normal;font-variant:normal;font-weight:normal;font-stretch:normal;font-size:6.35px;line-height:1.25;font-family:'Bebas Kai';-inkscape-font-specification:'Bebas Kai';opacity:1;fill:#000000;fill-opacity:1;stroke:none;stroke-width:0.264583;stop-opacity:1"
         id="path5860"
         inkscape:connector-curvature="0" />
      <path
         d="m 75.948237,51.555004 h -0.6731 v 1.87325 h -0.8001 v -1.87325 h -0.6731 v 4.445 h 0.6731 v -1.93675 h 0.8001 v 1.93675 h 0.6731 z"
         style="font-style:normal;font-variant:normal;font-weight:normal;font-stretch:normal;font-size:6.35px;line-height:1.25;font-family:'Bebas Kai';-inkscape-font-specification:'Bebas Kai';opacity:1;fill:#000000;fill-opacity:1;stroke:none;stroke-width:0.264583;stop-opacity:1"
         id="path5862"
         inkscape:connector-curvature="0" />
      <path
         d="m 78.543006,51.555004 h -0.6731 v 4.445 h 1.79705 v -0.635 h -1.12395 z"
         style="font-style:normal;font-variant:normal;font-weight:normal;font-stretch:normal;font-size:6.35px;line-height:1.25;font-family:'Bebas Kai';-inkscape-font-specification:'Bebas Kai';opacity:1;fill:#000000;fill-opacity:1;stroke:none;stroke-width:0.264583;stop-opacity:1"
         id="path5864"
         inkscape:connector-curvature="0" />
      <path
         d="m 81.994627,51.555004 h -1.8923 v 4.445 h 1.8923 v -0.6223 h -1.2192 v -1.3208 h 0.98425 v -0.6223 h -0.98425 v -1.2573 h 1.2192 z"
         style="font-style:normal;font-variant:normal;font-weight:normal;font-stretch:normal;font-size:6.35px;line-height:1.25;font-family:'Bebas Kai';-inkscape-font-specification:'Bebas Kai';opacity:1;fill:#000000;fill-opacity:1;stroke:none;stroke-width:0.264583;stop-opacity:1"
         id="path5866"
         inkscape:connector-curvature="0" />
      <path
         d="m 84.697645,51.555004 h -0.6731 l -0.4953,3.3909 h -0.0127 l -0.50165,-3.3909 h -0.6858 l 0.7493,4.445 h 0.86995 z"
         style="font-style:normal;font-variant:normal;font-weight:normal;font-stretch:normal;font-size:6.35px;line-height:1.25;font-family:'Bebas Kai';-inkscape-font-specification:'Bebas Kai';opacity:1;fill:#000000;fill-opacity:1;stroke:none;stroke-width:0.264583;stop-opacity:1"
         id="path5868"
         inkscape:connector-curvature="0" />
      <path
         d="m 87.067187,51.555004 h -1.8923 v 4.445 h 1.8923 v -0.6223 h -1.2192 v -1.3208 h 0.98425 v -0.6223 h -0.98425 v -1.2573 h 1.2192 z"
         style="font-style:normal;font-variant:normal;font-weight:normal;font-stretch:normal;font-size:6.35px;line-height:1.25;font-family:'Bebas Kai';-inkscape-font-specification:'Bebas Kai';opacity:1;fill:#000000;fill-opacity:1;stroke:none;stroke-width:0.264583;stop-opacity:1"
         id="path5870"
         inkscape:connector-curvature="0" />
      <path
         d="m 88.316052,51.555004 h -0.6731 v 4.445 h 1.79705 v -0.635 h -1.12395 z"
         style="font-style:normal;font-variant:normal;font-weight:normal;font-stretch:normal;font-size:6.35px;line-height:1.25;font-family:'Bebas Kai';-inkscape-font-specification:'Bebas Kai';opacity:1;fill:#000000;fill-opacity:1;stroke:none;stroke-width:0.264583;stop-opacity:1"
         id="path5872"
         inkscape:connector-curvature="0" />
      <path
         d="m 91.950733,51.555004 h -0.97155 v 4.445 h 0.6731 v -1.8415 h 0.29845 c 0.7239,0 1.1176,-0.3937 1.1176,-1.12395 v -0.3556 c 0,-0.73025 -0.3937,-1.12395 -1.1176,-1.12395 z m -0.0254,0.6223 c 0.32385,0 0.4699,0.17145 0.4699,0.5461 v 0.2667 c 0,0.37465 -0.14605,0.5461 -0.4699,0.5461 h -0.27305 v -1.3589 z"
         style="font-style:normal;font-variant:normal;font-weight:normal;font-stretch:normal;font-size:6.35px;line-height:1.25;font-family:'Bebas Kai';-inkscape-font-specification:'Bebas Kai';opacity:1;fill:#000000;fill-opacity:1;stroke:none;stroke-width:0.264583;stop-opacity:1"
         id="path5874"
         inkscape:connector-curvature="0" />
      <path
         d="m 95.78772,56.000004 -0.61595,-2.02565 c 0.31115,-0.1778 0.47625,-0.508 0.47625,-0.9779 v -0.3175 c 0,-0.73025 -0.3937,-1.12395 -1.1176,-1.12395 h -0.97155 v 4.445 h 0.6731 v -1.8796 h 0.31115 l 0.5334,1.8796 z m -1.2827,-3.8227 c 0.32385,0 0.4699,0.17145 0.4699,0.5461 v 0.2286 c 0,0.37465 -0.14605,0.5461 -0.4699,0.5461 h -0.27305 v -1.3208 z"
         style="font-style:normal;font-variant:normal;font-weight:normal;font-stretch:normal;font-size:6.35px;line-height:1.25;font-family:'Bebas Kai';-inkscape-font-specification:'Bebas Kai';opacity:1;fill:#000000;fill-opacity:1;stroke:none;stroke-width:0.264583;stop-opacity:1"
         id="path5876"
         inkscape:connector-curvature="0" />
      <path
         d="m 97.278581,51.491504 c -0.6731,0 -1.08585,0.42545 -1.08585,1.12395 v 2.3241 c 0,0.6985 0.41275,1.12395 1.08585,1.12395 0.6731,0 1.08585,-0.42545 1.08585,-1.12395 v -2.3241 c 0,-0.6985 -0.41275,-1.12395 -1.08585,-1.12395 z m 0,0.6223 c 0.2667,0 0.41275,0.1778 0.41275,0.508 v 2.3114 c 0,0.3302 -0.14605,0.508 -0.41275,0.508 -0.2667,0 -0.41275,-0.1778 -0.41275,-0.508 v -2.3114 c 0,-0.3302 0.14605,-0.508 0.41275,-0.508 z"
         style="font-style:normal;font-variant:normal;font-weight:normal;font-stretch:normal;font-size:6.35px;line-height:1.25;font-family:'Bebas Kai';-inkscape-font-specification:'Bebas Kai';opacity:1;fill:#000000;fill-opacity:1;stroke:none;stroke-width:0.264583;stop-opacity:1"
         id="path5878"
         inkscape:connector-curvature="0" />
      <path
         d="m 99.9938,51.491504 c -0.66675,0 -1.04775,0.3937 -1.04775,1.0668 v 2.4384 c 0,0.6731 0.381,1.0668 1.04775,1.0668 0.6731,0 1.06045,-0.3937 1.06045,-1.0668 v -1.45415 h -1.0414 v 0.6223 h 0.381 v 0.762 c 0,0.3556 -0.127,0.51435 -0.38735,0.51435 -0.26035,0 -0.38735,-0.15875 -0.38735,-0.45085 v -2.4257 c 0,-0.2921 0.13335,-0.45085 0.3937,-0.45085 0.26035,0 0.3937,0.15875 0.3937,0.51435 v 0.2667 l 0.6477,-0.03175 v -0.3048 c 0,-0.6731 -0.38735,-1.0668 -1.06045,-1.0668 z"
         style="font-style:normal;font-variant:normal;font-weight:normal;font-stretch:normal;font-size:6.35px;line-height:1.25;font-family:'Bebas Kai';-inkscape-font-specification:'Bebas Kai';opacity:1;fill:#000000;fill-opacity:1;stroke:none;stroke-width:0.264583;stop-opacity:1"
         id="path5880"
         inkscape:connector-curvature="0" />
      <path
         d="m 103.92366,56.000004 -0.61595,-2.02565 c 0.31115,-0.1778 0.47625,-0.508 0.47625,-0.9779 v -0.3175 c 0,-0.73025 -0.3937,-1.12395 -1.1176,-1.12395 h -0.97155 v 4.445 h 0.6731 v -1.8796 h 0.31115 l 0.5334,1.8796 z m -1.2827,-3.8227 c 0.32385,0 0.4699,0.17145 0.4699,0.5461 v 0.2286 c 0,0.37465 -0.14605,0.5461 -0.4699,0.5461 h -0.27305 v -1.3208 z"
         style="font-style:normal;font-variant:normal;font-weight:normal;font-stretch:normal;font-size:6.35px;line-height:1.25;font-family:'Bebas Kai';-inkscape-font-specification:'Bebas Kai';opacity:1;fill:#000000;fill-opacity:1;stroke:none;stroke-width:0.264583;stop-opacity:1"
         id="path5882"
         inkscape:connector-curvature="0" />
      <path
         d="m 106.30322,51.555004 h -1.8923 v 4.445 h 1.8923 v -0.6223 h -1.2192 v -1.3208 h 0.98425 v -0.6223 h -0.98425 v -1.2573 h 1.2192 z"
         style="font-style:normal;font-variant:normal;font-weight:normal;font-stretch:normal;font-size:6.35px;line-height:1.25;font-family:'Bebas Kai';-inkscape-font-specification:'Bebas Kai';opacity:1;fill:#000000;fill-opacity:1;stroke:none;stroke-width:0.264583;stop-opacity:1"
         id="path5884"
         inkscape:connector-curvature="0" />
      <path
         d="m 107.65398,51.491504 c -0.64135,0 -1.0033,0.36195 -1.0033,0.99695 v 0.09525 c 0,0.5207 0.20955,0.889 0.8255,1.4097 0.45085,0.381 0.5842,0.60325 0.5842,0.88265 v 0.14605 c 0,0.2794 -0.127,0.4191 -0.381,0.4191 -0.254,0 -0.381,-0.1397 -0.381,-0.4191 v -0.3175 l -0.6477,0.0635 v 0.29845 c 0,0.635 0.37465,0.99695 1.0414,0.99695 0.66675,0 1.0414,-0.36195 1.0414,-0.99695 v -0.22225 c 0,-0.5334 -0.2286,-0.9017 -0.84455,-1.4224 -0.45085,-0.381 -0.56515,-0.60325 -0.56515,-0.8636 v -0.05715 c 0,-0.254 0.12065,-0.38735 0.3429,-0.38735 0.22225,0 0.3429,0.13335 0.3429,0.38735 v 0.1651 l 0.6477,-0.0635 v -0.1143 c 0,-0.635 -0.36195,-0.99695 -1.0033,-0.99695 z"
         style="font-style:normal;font-variant:normal;font-weight:normal;font-stretch:normal;font-size:6.35px;line-height:1.25;font-family:'Bebas Kai';-inkscape-font-specification:'Bebas Kai';opacity:1;fill:#000000;fill-opacity:1;stroke:none;stroke-width:0.264583;stop-opacity:1"
         id="path5886"
         inkscape:connector-curvature="0" />
      <path
         d="m 109.92362,51.491504 c -0.64135,0 -1.0033,0.36195 -1.0033,0.99695 v 0.09525 c 0,0.5207 0.20955,0.889 0.8255,1.4097 0.45085,0.381 0.5842,0.60325 0.5842,0.88265 v 0.14605 c 0,0.2794 -0.127,0.4191 -0.381,0.4191 -0.254,0 -0.381,-0.1397 -0.381,-0.4191 v -0.3175 l -0.6477,0.0635 v 0.29845 c 0,0.635 0.37465,0.99695 1.0414,0.99695 0.66675,0 1.0414,-0.36195 1.0414,-0.99695 v -0.22225 c 0,-0.5334 -0.2286,-0.9017 -0.84455,-1.4224 -0.45085,-0.381 -0.56515,-0.60325 -0.56515,-0.8636 v -0.05715 c 0,-0.254 0.12065,-0.38735 0.3429,-0.38735 0.22225,0 0.3429,0.13335 0.3429,0.38735 v 0.1651 l 0.6477,-0.0635 v -0.1143 c 0,-0.635 -0.36195,-0.99695 -1.0033,-0.99695 z"
         style="font-style:normal;font-variant:normal;font-weight:normal;font-stretch:normal;font-size:6.35px;line-height:1.25;font-family:'Bebas Kai';-inkscape-font-specification:'Bebas Kai';opacity:1;fill:#000000;fill-opacity:1;stroke:none;stroke-width:0.264583;stop-opacity:1"
         id="path5888"
         inkscape:connector-curvature="0" />
      <g
         style="font-style:normal;font-weight:normal;font-size:10.5833px;line-height:1.25;font-family:sans-serif;fill:#b3b3b3;fill-opacity:1;stroke:none;stroke-width:0.264583"
         id="text945"
         aria-label="WP">
        <path
           id="path5891"
           style="font-style:normal;font-variant:normal;font-weight:normal;font-stretch:normal;font-size:10.5833px;font-family:'Bebas Kai';-inkscape-font-specification:'Bebas Kai Normal';font-variant-ligatures:normal;font-variant-caps:normal;font-variant-numeric:normal;font-variant-east-asian:normal;fill:#b3b3b3;fill-opacity:1;stroke-width:0.264583"
           d="m 112.59592,79.203766 h -1.12183 l -0.64558,4.910651 h -0.0212 l -0.635,-4.910651 h -0.99483 l -0.635,4.910651 h -0.0212 l -0.64558,-4.910651 h -1.15358 l 1.143,7.40831 h 1.143 l 0.64558,-4.413236 h 0.0212 l 0.635,4.413236 h 1.143 z" />
        <path
           id="path5893"
           style="font-style:normal;font-variant:normal;font-weight:normal;font-stretch:normal;font-size:10.5833px;font-family:'Bebas Kai';-inkscape-font-specification:'Bebas Kai Normal';font-variant-ligatures:normal;font-variant-caps:normal;font-variant-numeric:normal;font-variant-east-asian:normal;fill:#b3b3b3;fill-opacity:1;stroke-width:0.264583"
           d="m 115.02744,79.203766 h -1.61925 v 7.40831 h 1.12183 v -3.069157 h 0.49742 c 1.20649,0 1.86266,-0.656165 1.86266,-1.873244 V 81.07701 c 0,-1.217079 -0.65617,-1.873244 -1.86266,-1.873244 z m -0.0423,1.037163 c 0.53975,0 0.78317,0.28575 0.78317,0.910164 v 0.444499 c 0,0.624414 -0.24342,0.910164 -0.78317,0.910164 h -0.45508 v -2.264827 z" />
      </g>
      <g
         transform="matrix(0.00304482,0,0,-0.00304482,62.91282,96.453702)"
         id="g12"
         style="opacity:1;stop-opacity:1">
        <path
           id="path14"
           style="fill:#a5e2f4;fill-opacity:1;fill-rule:nonzero;stroke:none"
           d="m 1407.16,416.629 c 0,-97.301 -225.38,-176.168 -503.387,-176.168 -278.031,0 -503.402,78.867 -503.402,176.168 0,97.312 225.371,176.199 503.402,176.199 278.007,0 503.387,-78.887 503.387,-176.199 v 0"
           inkscape:connector-curvature="0" />
        <g
           id="g16">
          <g
             clip-path="url(#clipPath22)"
             id="g18">
            <path
               id="path24"
               style="fill:#86c0ea;fill-opacity:1;fill-rule:nonzero;stroke:none"
               d="m 1407.16,416.629 c 0,-97.301 -225.38,-176.168 -503.387,-176.168 -278.031,0 -503.402,78.867 -503.402,176.168 0,97.312 225.371,176.199 503.402,176.199 278.007,0 503.387,-78.887 503.387,-176.199 v 0"
               inkscape:connector-curvature="0" />
          </g>
        </g>
        <path
           id="path26"
           style="fill:#a5e2f4;fill-opacity:1;fill-rule:nonzero;stroke:none"
           d="m 328.73,934.68 -14.531,-50.625 c 0,0 -3.777,-18.301 13.457,-21.543 18.008,0.351 16.532,17.187 15.274,22.656 l -14.2,49.512 v 0"
           inkscape:connector-curvature="0" />
        <path
           id="path28"
           style="fill:#100f0d;fill-opacity:1;fill-rule:nonzero;stroke:none"
           d="m 1792.16,1146.95 1.33,6.58 c -147.68,29.53 -299.22,29.82 -390.9,26.01 15.06,54.26 19.59,116.7 19.59,186.33 0,99.86 -37.52,179.76 -98.42,240.54 10.64,34.36 24.86,110.66 -14.2,208.34 0,0 -68.91,21.88 -224.77,-82.44 -61.06,15.26 -126.036,22.8 -191.118,22.8 -71.602,0 -143.945,-9.12 -211.426,-27.63 -160.859,109.75 -231.863,87.27 -231.863,87.27 -46.36,-115.9 -17.699,-201.71 -8.988,-223.03 -54.481,-58.79 -87.743,-133.84 -87.743,-225.85 0,-69.46 7.918,-131.78 27.239,-185.94 C 288.43,1183.29 142.402,1182 0,1153.53 l 1.31641,-6.58 c 143.25359,28.65 290.18759,29.64 382.08959,26.17 4.262,-11.21 8.996,-22.09 14.309,-32.6 -90.879,-2.93 -246.043,-14.51 -394.75406,-56.47 l 1.82422,-6.44 C 154.668,1119.88 311.191,1131.16 401.191,1133.92 455.488,1032.71 562.539,967.336 752.988,946.809 725.957,928.645 698.391,897.766 687.207,845.52 650.371,827.902 533.77,784.898 463.809,905.227 c 0,0 -39.161,71.601 -114.114,77.207 0,0 -72.715,1.113 -5.027,-45.313 0,0 48.66,-22.93 82.227,-109.082 0,0 43.789,-146.949 255.117,-99.801 V 576.441 c 0,0 -4.473,-53.691 -53.692,-71.582 0,0 -29.082,-20.14 2.246,-31.308 0,0 136.446,-11.192 136.446,100.64 v 165.528 c 0,0 -5.403,65.64 26.836,88.457 V 556.301 c 0,0 -2.227,-64.86 -35.782,-89.473 0,0 -22.375,-40.246 26.836,-29.078 0,0 93.946,13.422 98.418,123.031 l 2.141,275.129 h 22.57 l 2.149,-275.129 c 4.472,-109.609 98.42,-123.031 98.42,-123.031 49.2,-11.168 26.83,29.078 26.83,29.078 -33.55,24.613 -35.778,89.473 -35.778,89.473 v 269.531 c 32.228,-25.094 26.838,-86.113 26.838,-86.113 V 574.191 c 0,-111.832 136.44,-100.64 136.44,-100.64 31.31,11.168 2.25,31.308 2.25,31.308 -49.22,17.891 -53.69,71.582 -53.69,71.582 V 793.41 c 0,84.61 -35.63,129.414 -70.47,153.067 203.11,20.136 300.57,85.723 345.48,187.613 88.96,-2.44 249.06,-13.28 402.21,-56.48 l 1.81,6.44 c -152.26,42.95 -311.31,54.07 -401.17,56.68 4.26,10.3 7.97,21 11.27,32.02 91.05,3.88 243.28,3.84 391.54,-25.8 v 0"
           inkscape:connector-curvature="0" />
        <path
           id="path30"
           style="fill:#f5c6aa;fill-opacity:1;fill-rule:nonzero;stroke:none"
           d="m 1223.52,1370.58 c 43.75,-39.63 69.34,-87.49 69.34,-139.05 0,-240.757 -179.48,-247.28 -400.848,-247.28 -221.399,0 -400.86,33.34 -400.86,247.28 0,51.22 25.235,98.77 68.446,138.25 72.062,65.78 194.043,30.95 332.414,30.95 137.818,0 259.338,35.18 331.508,-30.15 v 0"
           inkscape:connector-curvature="0" />
        <path
           id="path32"
           style="fill:#ffffff;fill-opacity:1;fill-rule:nonzero;stroke:none"
           d="m 758.711,1219.25 c 0,-66.31 -37.344,-120.06 -83.398,-120.06 -46.067,0 -83.418,53.75 -83.418,120.06 0,66.31 37.351,120.04 83.418,120.04 46.054,0 83.398,-53.73 83.398,-120.04 v 0"
           inkscape:connector-curvature="0" />
        <path
           id="path34"
           style="fill:#ac4a48;fill-opacity:1;fill-rule:nonzero;stroke:none"
           d="m 731.953,1217.75 c 0,-44.2 -24.91,-80.02 -55.605,-80.02 -30.723,0 -55.606,35.82 -55.606,80.02 0,44.21 24.883,80.05 55.606,80.05 30.695,0 55.605,-35.84 55.605,-80.05 v 0"
           inkscape:connector-curvature="0" />
        <path
           id="path36"
           style="fill:#ffffff;fill-opacity:1;fill-rule:nonzero;stroke:none"
           d="m 1206.18,1219.25 c 0,-66.31 -37.35,-120.06 -83.42,-120.06 -46.06,0 -83.4,53.75 -83.4,120.06 0,66.31 37.34,120.04 83.4,120.04 46.07,0 83.42,-53.73 83.42,-120.04 v 0"
           inkscape:connector-curvature="0" />
        <path
           id="path38"
           style="fill:#ac4a48;fill-opacity:1;fill-rule:nonzero;stroke:none"
           d="m 1179.4,1217.75 c 0,-44.2 -24.9,-80.02 -55.61,-80.02 -30.7,0 -55.6,35.82 -55.6,80.02 0,44.21 24.9,80.05 55.6,80.05 30.71,0 55.61,-35.84 55.61,-80.05 v 0"
           inkscape:connector-curvature="0" />
        <path
           id="path40"
           style="fill:#ac4a48;fill-opacity:1;fill-rule:nonzero;stroke:none"
           d="m 914.047,1112.63 c 0,-11.52 -9.336,-20.86 -20.863,-20.86 -11.524,0 -20.86,9.34 -20.86,20.86 0,11.52 9.336,20.86 20.86,20.86 11.527,0 20.863,-9.34 20.863,-20.86 v 0"
           inkscape:connector-curvature="0" />
        <path
           id="path42"
           style="fill:#ac4a48;fill-opacity:1;fill-rule:nonzero;stroke:none"
           d="m 844.59,1059.89 c -1.231,3.5 0.605,7.33 4.09,8.56 3.488,1.23 7.328,-0.61 8.554,-4.08 5.364,-15.16 19.739,-25.33 35.774,-25.33 16.039,0 30.414,10.17 35.785,25.33 1.23,3.49 5.059,5.31 8.555,4.08 3.496,-1.23 5.312,-5.06 4.082,-8.56 -7.246,-20.48 -26.719,-34.25 -48.422,-34.25 -21.699,0 -41.153,13.77 -48.418,34.25 v 0"
           inkscape:connector-curvature="0" />
        <path
           id="path44"
           style="fill:#c5ead4;fill-opacity:1;fill-rule:nonzero;stroke:none"
           d="m 382.148,964.523 c 0,-5.566 -6.523,-10.058 -14.55,-10.058 -8.028,0 -14.543,4.492 -14.543,10.058 0,5.567 6.515,10.079 14.543,10.079 8.027,0 14.55,-4.512 14.55,-10.079 v 0"
           inkscape:connector-curvature="0" />
        <path
           id="path46"
           style="fill:#c5ead4;fill-opacity:1;fill-rule:nonzero;stroke:none"
           d="m 422.422,942.16 c 0,-5.566 -6.524,-10.078 -14.551,-10.078 -8.027,0 -14.543,4.512 -14.543,10.078 0,5.547 6.516,10.059 14.543,10.059 8.027,0 14.551,-4.512 14.551,-10.059 v 0"
           inkscape:connector-curvature="0" />
        <path
           id="path48"
           style="fill:#c5ead4;fill-opacity:1;fill-rule:nonzero;stroke:none"
           d="m 447.031,913.059 c 0,-5.547 -6.515,-10.059 -14.551,-10.059 -8.027,0 -14.531,4.512 -14.531,10.059 0,5.566 6.504,10.078 14.531,10.078 8.036,0 14.551,-4.512 14.551,-10.078 v 0"
           inkscape:connector-curvature="0" />
        <path
           id="path50"
           style="fill:#c5ead4;fill-opacity:1;fill-rule:nonzero;stroke:none"
           d="m 469.395,879.504 c 0,-5.566 -6.504,-10.078 -14.532,-10.078 -8.039,0 -14.55,4.512 -14.55,10.078 0,5.566 6.511,10.078 14.55,10.078 8.028,0 14.532,-4.512 14.532,-10.078 v 0"
           inkscape:connector-curvature="0" />
        <path
           id="path52"
           style="fill:#c5ead4;fill-opacity:1;fill-rule:nonzero;stroke:none"
           d="m 494.016,848.176 c 0,-5.547 -6.516,-10.059 -14.543,-10.059 -8.028,0 -14.551,4.512 -14.551,10.059 0,5.566 6.523,10.078 14.551,10.078 8.027,0 14.543,-4.512 14.543,-10.078 v 0"
           inkscape:connector-curvature="0" />
        <path
           id="path54"
           style="fill:#c5ead4;fill-opacity:1;fill-rule:nonzero;stroke:none"
           d="m 527.578,821.34 c 0,-5.559 -6.515,-10.078 -14.551,-10.078 -8.027,0 -14.531,4.519 -14.531,10.078 0,5.547 6.504,10.058 14.531,10.058 8.036,0 14.551,-4.511 14.551,-10.058 v 0"
           inkscape:connector-curvature="0" />
        <path
           id="path56"
           style="fill:#c5ead4;fill-opacity:1;fill-rule:nonzero;stroke:none"
           d="m 574.559,803.43 c 0,-5.551 -6.512,-10.059 -14.539,-10.059 -8.04,0 -14.551,4.508 -14.551,10.059 0,5.57 6.511,10.082 14.551,10.082 8.027,0 14.539,-4.512 14.539,-10.082 v 0"
           inkscape:connector-curvature="0" />
        <path
           id="path58"
           style="fill:#c5ead4;fill-opacity:1;fill-rule:nonzero;stroke:none"
           d="m 621.316,803.43 c 0,-5.551 -6.511,-10.059 -14.539,-10.059 -8.039,0 -14.55,4.508 -14.55,10.059 0,5.57 6.511,10.082 14.55,10.082 8.028,0 14.539,-4.512 14.539,-10.082 v 0"
           inkscape:connector-curvature="0" />
        <path
           id="path60"
           style="fill:#c5ead4;fill-opacity:1;fill-rule:nonzero;stroke:none"
           d="m 668.777,811.219 c 0,-5.559 -6.511,-10.071 -14.539,-10.071 -8.039,0 -14.55,4.512 -14.55,10.071 0,5.57 6.511,10.082 14.55,10.082 8.028,0 14.539,-4.512 14.539,-10.082 v 0"
           inkscape:connector-curvature="0" />
      </g>
      <g
         id="g1036"
         fill="#264970"
         transform="matrix(0.02234825,0,0,0.02234825,83.010619,93.895639)">
        <path
           id="path1026"
           d="m 468.909,51.385 a 3.59,3.59 0 0 0 -3.426,-2.512 h -33.52 a 3.589,3.589 0 0 0 -3.424,2.512 l -42.29,134.129 a 3.59,3.59 0 0 0 3.425,4.673 h 23.077 a 3.59,3.59 0 0 0 3.445,-2.575 l 29.122,-98.647 c 0,0 0.762,-2.464 3.4,-2.464 2.68,0 3.334,2.56 3.334,2.563 l 13.511,46.78 H 447 a 3.591,3.591 0 0 0 -3.457,2.618 l -5.21,18.519 a 3.587,3.587 0 0 0 0.596,3.14 3.589,3.589 0 0 0 2.863,1.424 h 31.326 l 8.138,26.117 a 3.593,3.593 0 0 0 3.43,2.525 h 23.087 a 3.592,3.592 0 0 0 3.425,-4.673 l -42.29,-134.13"
           inkscape:connector-curvature="0" />
        <path
           id="path1028"
           d="m 311.281,74.988 h 27.933 c 14.446,0 17.346,5.684 17.346,14.857 v 13.699 c 0,11.417 -4.376,15.269 -17.346,15.269 h -27.933 z m 85.289,109.27 -30.694,-44.277 c 13.216,-5.482 19.914,-16.972 19.914,-34.154 V 87.77 c 0,-26.902 -14.045,-38.897 -45.54,-38.897 h -54.606 a 3.592,3.592 0 0 0 -3.592,3.59 v 134.13 a 3.593,3.593 0 0 0 3.592,3.594 h 22.045 a 3.593,3.593 0 0 0 3.592,-3.593 v -42.066 h 22.561 l 30.684,44.117 a 3.595,3.595 0 0 0 2.949,1.542 h 26.367 a 3.592,3.592 0 0 0 2.728,-5.93 z M 255.268,48.873 h -22.046 a 3.592,3.592 0 0 0 -3.592,3.59 v 134.13 a 3.593,3.593 0 0 0 3.592,3.594 h 22.046 a 3.593,3.593 0 0 0 3.593,-3.593 V 52.464 a 3.592,3.592 0 0 0 -3.593,-3.591 m -51.628,0 h -22.314 a 3.43,3.43 0 0 0 -3.43,3.42 V 157.25 c 0,13.19 -10.051,17.526 -16.853,17.872 -0.917,0.045 -1.984,0.623 -2.57,1.48 a 3.415,3.415 0 0 0 -0.447,2.932 l 5.425,17.648 c 0.443,1.444 2,2.373 4.532,2.373 21.35,0 39.077,-16.763 39.077,-39.232 V 52.295 a 3.42,3.42 0 0 0 -3.42,-3.422"
           inkscape:connector-curvature="0" />
        <g
           id="g1034">
          <path
             id="path1030"
             d="m 30.847,12.281 c -6.856,0 -12.407,5.544 -12.407,12.417 0,6.856 5.551,12.42 12.407,12.42 6.86,0 12.406,-5.564 12.406,-12.42 0,-6.873 -5.545,-12.417 -12.406,-12.417 m 81.509,0 c -6.859,0 -12.403,5.544 -12.403,12.417 0,6.856 5.544,12.42 12.403,12.42 6.84,0 12.404,-5.564 12.404,-12.42 0,-6.873 -5.564,-12.408 -12.404,-12.417 M 71.601,0.951 c -6.855,0 -12.406,5.543 -12.406,12.418 0,6.856 5.55,12.42 12.406,12.42 6.86,0 12.405,-5.564 12.405,-12.42 C 84.006,6.494 78.46,0.951 71.6,0.951 m 70.086,45.931 a 3.9,3.9 0 0 0 -2.362,-0.797 c -0.467,0 -0.94,0.085 -1.386,0.257 -8.4,3.213 -16.932,5.652 -24.718,7.466 -1.588,0.37 -2.87,1.55 -3.402,2.966 -5.673,15.539 -20.159,30.336 -35.357,45.834 -0.61,0.579 -1.464,1.343 -2.855,1.343 -1.388,0 -2.234,-0.74 -2.855,-1.343 C 53.555,87.11 39.069,72.364 33.394,56.824 32.862,55.409 31.579,54.23 29.994,53.858 22.203,52.044 13.651,49.529 5.26,46.318 A 3.91,3.91 0 0 0 3.87,46.061 c -0.841,0 -1.656,0.264 -2.344,0.79 a 3.881,3.881 0 0 0 -1.508,3.432 c 1.287,12.922 6.393,25.555 15.608,38.792 8.662,12.446 19.96,23.966 30.883,35.106 20.126,20.53 39.139,39.918 40.807,62.401 a 3.889,3.889 0 0 0 3.878,3.6 h 23.646 a 3.892,3.892 0 0 0 3.884,-4.08 c -0.744,-15.032 -6.401,-30.086 -17.294,-46.016 -2.283,-3.34 -4.728,-6.59 -7.285,-9.77 -1.039,-1.295 -0.604,-2.904 0.19,-3.716 0.786,-0.804 1.575,-1.606 2.37,-2.419 10.923,-11.14 22.22,-22.66 30.883,-35.106 9.214,-13.239 14.318,-25.797 15.606,-38.717 0.128,-1.298 -0.461,-2.676 -1.508,-3.476 M 46.232,141.67 c -0.56,-0.585 -1.381,-1.182 -2.761,-1.182 -1.765,0 -2.812,1.22 -3.208,1.824 -9.946,15.135 -15.083,29.42 -15.793,43.775 a 3.938,3.938 0 0 0 1.07,2.883 3.937,3.937 0 0 0 2.83,1.212 h 23.605 a 3.92,3.92 0 0 0 3.891,-3.614 c 0.514,-6.919 2.668,-13.854 6.59,-21.142 1.36,-2.521 0.303,-4.89 -0.479,-5.902 -3.89,-5.06 -8.656,-10.457 -15.745,-17.854"
             inkscape:connector-curvature="0" />
          <path
             id="path1032"
             d="m 71.628,58.466 c 7.41,0 11.708,-0.445 13.218,-0.445 1.83,0 3.577,1.499 3.577,3.597 0,0.612 -0.145,1.05 -0.288,1.437 -0.983,2.627 -5.462,12.08 -13.801,20.189 -0.936,0.91 -1.996,1.08 -2.726,1.08 H 71.6 c -0.729,0 -1.788,-0.17 -2.723,-1.08 -8.34,-8.109 -12.82,-17.562 -13.8,-20.19 -0.145,-0.386 -0.29,-0.824 -0.29,-1.436 0,-2.098 1.75,-3.597 3.58,-3.597 1.51,0 5.805,0.445 13.213,0.445 h 0.049"
             inkscape:connector-curvature="0" />
        </g>
      </g>
      <g
         id="g1068"
         transform="matrix(0.01227657,0,0,0.01227657,60.515717,98.076056)"
         style="opacity:1;fill:none;fill-rule:evenodd;stroke:none;stroke-width:1;stop-opacity:1">
        <path
           inkscape:connector-curvature="0"
           fill="#0079BF"
           id="Type"
           d="m 673.29354,177.58952 c -12.77067,5.20363 -22.84826,23.18136 -38.17514,33.39928 -0.9504,0.6336 -1.9008,0.9504 -2.5344,0.9504 -1.2672,0 -2.8512,-1.2672 -2.8512,-6.9696 0,-19.6416 6.336,-29.1456 11.7216,-43.0848 18.6912,-48.4704 50.688,-89.9712 79.2,-135.2736 2.2176,-3.4848 3.4848,-7.2864 3.4848,-11.4048 0,-3.4848 -1.2672,-6.336 -2.8512,-9.8208 C 720.0208,2.5344 714.3184,0 707.9824,0 c -3.4848,0 -6.6528,0.3168 -10.7712,0.3168 -14.8896,0 -18.0576,21.8592 -21.5424,27.5616 -23.76,40.2336 -51.0048,89.9712 -64.944,125.136 -3.0567,7.88306 -6.35849,15.76613 -8.86817,23.85663 -13.77475,3.9888 -24.09418,23.35667 -40.23583,34.11777 -0.9504,0.6336 -1.9008,0.9504 -2.5344,0.9504 -1.2672,0 -2.8512,-1.2672 -2.8512,-6.9696 0,-19.6416 6.336,-29.1456 11.7216,-43.0848 18.6912,-48.4704 50.688,-89.9712 79.2,-135.2736 2.2176,-3.4848 3.4848,-7.2864 3.4848,-11.4048 0,-3.4848 -1.2672,-6.336 -2.8512,-9.8208 C 646.5232,2.5344 640.8208,0 634.4848,0 631,0 627.832,0.3168 623.7136,0.3168 c -14.8896,0 -18.0576,21.8592 -21.5424,27.5616 -23.76,40.2336 -51.0048,89.9712 -64.944,125.136 -1.10816,2.85789 -2.24854,5.71578 -3.3717,8.58356 -0.34684,0.18526 -0.70102,0.38615 -1.0635,0.60364 -16.1568,9.504 -29.7792,26.2944 -49.4208,37.6992 -3.8016,2.2176 -15.5232,10.4544 -25.0272,10.4544 -2.2176,0 -4.1184,-0.6336 -6.0192,-1.584 -2.8512,-1.2672 -5.7024,-7.2864 -5.7024,-9.1872 0,-1.584 0.3168,-1.9008 3.4848,-3.8016 27.8784,-16.7904 50.688,-40.8672 70.3296,-64.944 7.2864,-8.8704 16.7904,-26.2944 16.7904,-38.9664 0,-8.2368 -2.8512,-17.7408 -12.672,-21.2256 -6.9696,-2.5344 -14.8896,-3.8016 -21.2256,-3.8016 -16.7904,0 -29.1456,7.6032 -36.1152,14.8896 -7.09544,7.57486 -13.95871,15.352865 -20.33509,23.40428 C 440.217,99.38685 430.8199,96.9408 421.912,96.9408 c -10.4544,0 -30.096,12.9888 -40.2336,20.592 -1.584,1.2672 -2.5344,1.9008 -3.168,1.9008 -0.3168,0 -0.6336,-0.3168 -0.6336,-0.9504 0,-0.3168 0.6336,-3.168 0.6336,-8.2368 0,-4.4352 -0.9504,-10.1376 -5.0688,-17.1072 -0.9504,-1.584 -6.6528,-5.0688 -13.6224,-5.0688 -8.5536,0 -16.4736,4.1184 -16.4736,8.5536 0,3.168 2.8512,4.4352 2.8512,7.2864 0,1.584 -1.2672,8.8704 -3.168,15.84 -5.3856,20.2752 -12.0384,40.2336 -19.008,60.192 -3.8016,11.088 -16.4736,20.9088 -16.4736,32.9472 0,3.8016 2.5344,8.8704 6.0192,12.672 5.7024,6.336 9.1872,8.5536 14.256,8.5536 2.2176,0 4.752,-0.6336 6.9696,-2.5344 4.752,-4.1184 7.2864,-8.2368 8.5536,-13.9392 8.2368,-37.3824 31.9968,-62.7264 58.2912,-79.5168 8.8704,-5.7024 20.9088,-11.7216 22.4928,-11.7216 1.62424,0 4.1645,0.74948 6.72419,1.47991 -7.35027,11.98886 -13.30585,24.63228 -17.17859,38.12009 -1.2672,4.4352 -1.9008,8.5536 -1.9008,12.9888 0,7.2864 1.584,14.8896 4.1184,22.176 3.4848,10.1376 9.1872,19.008 17.1072,23.1264 14.5728,7.6032 25.0272,11.7216 34.5312,11.7216 5.3856,0 9.504,-0.9504 13.9392,-3.4848 20.82227,-11.78102 33.58848,-20.71873 42.80676,-28.65735 0.25276,8.04907 1.83941,12.50846 7.56444,18.51975 5.7024,6.0192 14.5728,11.4048 26.2944,13.9392 1.9008,0.3168 3.8016,0.6336 5.7024,0.6336 13.4111,0 26.31755,-10.90046 36.26967,-21.70635 1.15227,2.35804 2.82673,4.60893 5.23113,7.13355 5.7024,6.0192 14.5728,11.4048 26.2944,13.9392 1.9008,0.3168 3.8016,0.6336 5.7024,0.6336 15.70977,0 30.72706,-14.95738 41.11436,-27.19906 3.46192,7.16051 13.13618,14.24001 24.78004,19.91266 3.168,1.584 6.9696,2.5344 10.4544,2.5344 13.6224,0 23.4432,-11.088 31.0464,-19.3248 19.6416,-21.5424 30.4128,-48.1536 38.6496,-81.7344 0.6336,-2.5344 1.584,-3.4848 2.8512,-3.4848 3.168,0 7.2864,0 11.7216,-0.6336 8.5536,-1.2672 15.2064,-4.1184 23.1264,-5.3856 4.752,-0.9504 4.1184,-2.5344 8.5536,-4.1184 3.168,-1.2672 5.7024,-2.5344 5.7024,-5.7024 0,-5.3856 -9.8208,-11.088 -24.7104,-11.088 -11.7216,0 -18.6912,0.9504 -23.4432,0.9504 -7.2864,0 -9.1872,-2.2176 -13.9392,-14.5728 0,0 4.752,12.3552 0,0 -0.9504,-2.5344 -1.9008,-3.8016 -4.752,-6.336 -6.6528,-5.7024 -14.8896,-7.6032 -21.5424,-7.6032 -15.84,0 -29.4624,16.1568 -38.9664,29.7792 -2.2176,3.168 -5.3856,5.7024 -7.6032,9.1872 -13.05001,19.57502 -25.54469,41.64909 -27.08566,65.44232 z M 268.264,69.696 c 7.92,0 12.3552,-0.6336 13.3056,-0.6336 0.9504,0 1.584,0.3168 1.584,1.2672 0,0.6336 -0.3168,1.584 -2.5344,6.336 -19.3248,41.5008 -32.6304,83.6352 -44.352,130.2048 -0.3168,1.2672 -1.2672,6.0192 -1.2672,10.7712 0,4.4352 1.2672,9.1872 5.7024,11.7216 8.5536,5.0688 15.5232,7.2864 20.2752,7.2864 6.9696,0 10.4544,-4.4352 10.4544,-11.7216 0,-6.336 0.3168,-12.9888 1.2672,-18.0576 8.8704,-46.5696 22.176,-83.0016 42.768,-121.0176 9.8208,-18.0576 11.088,-19.008 11.088,-20.592 0,-0.6336 -0.3168,-1.584 -0.9504,-2.5344 12.672,-2.8512 27.8784,-4.752 41.8176,-4.752 1.584,0 7.92,2.2176 8.8704,3.168 2.2176,2.2176 4.4352,4.4352 8.2368,4.4352 3.168,0 8.5536,-2.2176 10.4544,-3.4848 4.4352,-3.168 6.6528,-6.6528 6.6528,-12.3552 0,-5.3856 -19.9584,-18.6912 -33.8976,-18.6912 -17.1072,0 -32.6304,2.2176 -47.2032,5.0688 -6.336,1.2672 -29.1456,4.752 -45.6192,4.752 -15.84,0 -14.8896,-2.2176 -21.5424,-2.2176 -3.8016,0 -5.7024,1.9008 -7.2864,3.4848 -1.584,1.584 -2.5344,7.92 -2.5344,13.6224 0,2.8512 0,5.0688 1.584,6.9696 4.752,5.7024 13.9392,6.9696 23.1264,6.9696 0,0 -9.1872,0 0,0 z m 234.7488,25.6608 c 0,2.8512 -0.9504,4.752 -4.752,10.7712 -3.8016,6.0192 -2.2176,6.0192 -6.9696,12.3552 -9.1872,12.3552 -20.592,24.7104 -35.4816,38.3328 -4.1184,3.8016 -4.752,3.8016 -5.3856,3.8016 -0.3168,0 -0.9504,-0.3168 -0.9504,-0.9504 0,-0.9504 0.3168,-2.2176 3.4848,-8.8704 9.8208,-20.592 21.8592,-34.2144 35.1648,-47.52 7.2864,-7.2864 11.7216,-9.8208 13.3056,-9.8208 0.9504,0 1.584,0.3168 1.584,1.9008 0,0 0,-1.584 0,0 z m 243.6192,8.2368 c 0.3168,0 0.6336,0.3168 0.9504,0.9504 0.3168,0.9504 0.9504,1.9008 2.5344,3.168 1.2672,0.9504 1.2672,5.3856 1.2672,8.8704 0,30.7296 -17.424,56.0736 -34.5312,81.7344 -3.8016,5.7024 -6.0192,6.6528 -7.92,6.6528 -1.584,0 -4.1184,-4.1184 -5.0688,-6.6528 -1.2672,-3.4848 -1.584,-7.6032 -1.584,-9.1872 0,-24.7104 23.4432,-61.4592 38.9664,-81.7344 2.5344,-3.4848 4.4352,-3.8016 5.3856,-3.8016 0,0 -0.9504,0 0,0 z" />
        <g
           transform="translate(0,35)"
           id="Mark">
          <path
             d="m 25,0 h 150 c 13.85,0 25,11.15 25,25 v 150 c 0,13.85 -11.15,25 -25,25 H 25 C 11.15,200 0,188.85 0,175 V 25 C 0,11.15 11.15,0 25,0 Z"
             style="fill:url(#linearGradient-1)"
             id="Board" />
          <path
             d="m 125,26 h 37 c 6.648,0 12,5.352 12,12 v 63.5 c 0,6.648 -5.352,12 -12,12 h -37 c -6.648,0 -12,-5.352 -12,-12 V 38 c 0,-6.648 5.352,-12 12,-12 z"
             style="fill:#ffffff"
             id="Right-List" />
          <path
             d="m 38,26 h 37 c 6.648,0 12,5.352 12,12 v 113.5 c 0,6.648 -5.352,12 -12,12 H 38 c -6.648,0 -12,-5.352 -12,-12 V 38 c 0,-6.648 5.352,-12 12,-12 z"
             style="fill:#ffffff"
             id="Left-List" />
        </g>
      </g>
      <path
         style="fill:#666666;fill-opacity:1;stroke:#666666;stroke-width:0.2;stroke-linecap:butt;stroke-linejoin:miter;stroke-miterlimit:4;stroke-dasharray:none;stroke-opacity:1;marker-start:url(#Arrow2Mstart);marker-end:url(#Arrow2Mend)"
         d="m 65.643248,72.06298 v 2.964303"
         id="path1142"
         inkscape:connector-curvature="0" />
      <path
         inkscape:connector-curvature="0"
         id="path3239"
         d="m 88.724695,72.06298 v 2.964303"
         style="fill:#666666;fill-opacity:1;stroke:#666666;stroke-width:0.2;stroke-linecap:butt;stroke-linejoin:miter;stroke-miterlimit:4;stroke-dasharray:none;stroke-opacity:1;marker-start:url(#marker3243);marker-end:url(#marker3253)" />
      <path
         d="M 102.61609,75.817947 H 120.9962 V 105.35741 H 102.61609 Z"
         style="fill:none;stroke:#b3b3b3;stroke-width:0.447215;stroke-linecap:round;stroke-miterlimit:4;stroke-dasharray:0.447215, 0.89443;stroke-dashoffset:0;stroke-opacity:1"
         id="rect3731" />
      <path
         style="fill:#b3b3b3;fill-opacity:1;stroke:#b3b3b3;stroke-width:0.2;stroke-linecap:butt;stroke-linejoin:miter;stroke-miterlimit:4;stroke-dasharray:none;stroke-opacity:1;marker-start:url(#marker3737);marker-end:url(#marker3747)"
         d="m 111.80615,72.06298 v 2.964303"
         id="path3733"
         inkscape:connector-curvature="0" />
      <g
         id="g4272"
         transform="matrix(0.44874308,0,0,0.44874308,68.970294,42.822414)"
         style="opacity:0.6">
        <g
           transform="matrix(0.04093527,0,0,0.04093527,83.470131,107.36544)"
           id="g44"
           style="opacity:1;stop-opacity:1">
          <path
             d="M 461,301.81 442.09,243.69 404.67,128.41 a 6.47,6.47 0 0 0 -12.27,0 L 355,243.62 H 230.66 L 193.24,128.41 a 6.47,6.47 0 0 0 -12.27,0 l -37.35,115.21 -18.92,58.19 a 12.89,12.89 0 0 0 4.66,14.39 L 292.82,435 456.28,316.2 A 12.9,12.9 0 0 0 461,301.81"
             class="cls-2"
             id="path46-7"
             inkscape:connector-curvature="0" />
        </g>
        <g
           transform="matrix(0.04093527,0,0,0.04093527,83.470131,107.36544)"
           id="g48"
           style="opacity:1;stop-opacity:1">
          <path
             d="m 292.86,434.89 v 0 L 355,243.61 H 230.7 Z"
             class="cls-3"
             id="path50-6"
             inkscape:connector-curvature="0" />
        </g>
        <g
           transform="matrix(0.04093527,0,0,0.04093527,83.470131,107.36544)"
           id="g56"
           style="opacity:1;stop-opacity:1">
          <path
             d="M 292.82,434.9 230.66,243.61 h -87 z"
             class="cls-2"
             id="path58-4"
             inkscape:connector-curvature="0" />
        </g>
        <g
           transform="matrix(0.04093527,0,0,0.04093527,83.470131,107.36544)"
           id="g64"
           style="opacity:1;stop-opacity:1">
          <path
             d="m 143.59,243.68 v 0 l -18.92,58.12 a 12.89,12.89 0 0 0 4.66,14.39 L 292.79,435 Z"
             class="cls-4"
             id="path66"
             inkscape:connector-curvature="0" />
        </g>
        <g
           transform="matrix(0.04093527,0,0,0.04093527,83.470131,107.36544)"
           id="g72"
           style="opacity:1;stop-opacity:1">
          <path
             d="m 143.61,243.68 h 87.11 L 193.23,128.47 a 6.47,6.47 0 0 0 -12.27,0 z"
             class="cls-3"
             id="path74"
             inkscape:connector-curvature="0" />
        </g>
        <g
           transform="matrix(0.04093527,0,0,0.04093527,83.470131,107.36544)"
           id="g76"
           style="opacity:1;stop-opacity:1">
          <path
             d="M 292.86,434.9 355,243.61 h 87.1 z"
             class="cls-2"
             id="path78"
             inkscape:connector-curvature="0" />
        </g>
        <g
           transform="matrix(0.04093527,0,0,0.04093527,83.470131,107.36544)"
           id="g80"
           style="opacity:1;stop-opacity:1">
          <path
             d="m 442.07,243.68 v 0 L 461,301.8 a 12.89,12.89 0 0 1 -4.66,14.39 l -163.47,118.7 z"
             class="cls-4"
             id="path82"
             inkscape:connector-curvature="0" />
        </g>
        <g
           transform="matrix(0.04093527,0,0,0.04093527,83.470131,107.36544)"
           id="g84"
           style="opacity:1;stop-opacity:1">
          <path
             d="M 442.12,243.68 H 355 l 37.42,-115.21 a 6.47,6.47 0 0 1 12.27,0 l 37.42,115.21 z"
             class="cls-3"
             id="path86"
             inkscape:connector-curvature="0" />
        </g>
      </g>
    </g>
  </g>
</svg>
